<svg width="18" height="18" viewBox="0 0 18 18" fill="none" xmlns="http://www.w3.org/2000/svg">
<path fill-rule="evenodd" clip-rule="evenodd" d="M0.665039 9.00004C0.665039 4.39675 4.39675 0.665039 9.00004 0.665039C13.6033 0.665039 17.335 4.39675 17.335 9.00004C17.335 13.6033 13.6033 17.335 9.00004 17.335C4.39675 17.335 0.665039 13.6033 0.665039 9.00004Z" fill="#08AD36"/>
<path fill-rule="evenodd" clip-rule="evenodd" d="M13.0239 6.00129C13.3198 6.2972 13.3198 6.77696 13.0239 7.07288L8.32061 11.9981C8.0247 12.294 7.54493 12.294 7.24902 11.9981L4.97584 9.72492C4.67993 9.42901 4.67993 8.94924 4.97584 8.65333C5.27175 8.35742 5.75152 8.35742 6.04743 8.65333L7.78482 10.3907L11.9523 6.00129C12.2482 5.70538 12.728 5.70538 13.0239 6.00129Z" fill="white"/>
</svg>
